<?xml version="1.0" standalone="no"?>
<!DOCTYPE svg PUBLIC "-//W3C//DTD SVG 20010904//EN"
 "http://www.w3.org/TR/2001/REC-SVG-20010904/DTD/svg10.dtd">
<svg version="1.0" xmlns="http://www.w3.org/2000/svg"
 width="904.000000pt" height="904.000000pt" viewBox="0 0 904.000000 904.000000"
 preserveAspectRatio="xMidYMid meet">
<metadata>
Created by potrace 1.14, written by Peter Selinger 2001-2017
</metadata>
<g transform="translate(0.000000,904.000000) scale(0.100000,-0.100000)"
fill="#000000" stroke="none">
<path d="M4867 7780 c-27 -5 -63 -14 -80 -20 -59 -20 -236 -134 -281 -179 -60
-63 -172 -249 -187 -314 -7 -31 -14 -181 -18 -367 -5 -272 -8 -320 -24 -350
-9 -20 -62 -84 -116 -142 -90 -97 -100 -113 -116 -172 -23 -83 -17 -191 14
-260 13 -31 55 -84 110 -141 134 -138 125 -109 129 -460 3 -321 1 -351 -27
-386 -28 -35 -62 -19 -112 52 -46 66 -76 85 -185 121 -83 27 -149 85 -207 183
-38 63 -53 77 -156 146 -63 43 -123 86 -133 97 -10 10 -54 70 -96 133 l-77
114 -98 50 -99 50 -136 5 c-136 6 -137 6 -217 47 -44 23 -106 57 -138 76 -40
24 -81 39 -130 47 -84 15 -285 8 -337 -11 -19 -7 -88 -44 -153 -83 l-119 -71
-709 -709 c-697 -697 -711 -711 -773 -815 -91 -151 -94 -158 -107 -256 -20
-153 2 -306 57 -385 19 -27 52 -87 74 -134 40 -84 40 -86 43 -214 l2 -128 49
-98 c52 -104 55 -107 206 -209 90 -60 100 -71 185 -193 l91 -129 94 -50 c137
-72 205 -128 285 -233 39 -51 81 -99 93 -107 38 -27 104 -45 201 -55 126 -13
160 -24 218 -65 57 -42 272 -149 328 -164 58 -16 213 -14 273 4 93 28 265 121
326 177 90 81 1354 1347 1416 1418 78 89 166 276 181 387 14 109 0 205 -45
298 -19 39 -53 111 -77 160 -52 107 -55 155 -14 281 31 98 45 116 81 112 22
-2 40 -20 86 -84 65 -93 94 -118 228 -198 97 -58 140 -73 289 -100 85 -15 131
-41 131 -74 0 -9 -13 -39 -29 -67 -50 -88 -53 -111 -60 -450 -6 -262 -11 -327
-24 -358 -9 -21 -61 -84 -115 -141 -117 -122 -133 -156 -133 -291 0 -134 16
-170 128 -286 141 -148 136 -130 144 -519 3 -186 11 -339 17 -358 19 -59 136
-246 182 -292 52 -52 231 -165 299 -189 41 -14 163 -16 1151 -16 880 0 1115 3
1154 13 63 17 258 134 311 187 45 45 157 223 182 287 13 35 17 107 23 373 8
390 0 364 145 515 111 117 125 149 125 289 0 129 -21 173 -140 296 -50 52 -98
111 -107 132 -13 31 -17 96 -23 368 -5 231 -11 340 -20 365 -24 65 -140 246
-185 291 -24 24 -94 74 -156 111 -112 68 -129 73 -285 98 -89 14 -134 40 -134
76 0 15 13 50 29 78 17 28 35 72 41 96 7 26 15 181 19 360 8 372 0 345 146
500 114 120 130 160 123 299 -6 117 -27 159 -136 273 -49 52 -98 110 -108 129
-16 30 -19 70 -25 359 -7 372 -7 369 -95 517 -68 114 -125 179 -197 224 -29
18 -80 50 -114 71 -108 69 -85 67 -1263 66 -575 0 -1067 -4 -1093 -8z m2206
-312 c76 -36 189 -144 223 -215 31 -62 27 -94 -13 -120 -25 -17 -101 -18
-1193 -23 -921 -4 -1170 -8 -1187 -18 -36 -20 -53 -64 -53 -139 0 -73 13 -102
53 -125 17 -10 279 -14 1197 -18 1270 -5 1204 -2 1229 -57 6 -13 11 -48 11
-77 0 -65 -24 -101 -78 -116 -56 -15 -2556 -13 -2602 3 -63 22 -70 51 -70 292
1 337 14 389 132 508 77 78 132 113 201 127 23 4 503 7 1067 7 l1025 -2 58
-27z m428 -1219 c77 -17 99 -43 99 -119 0 -54 -3 -65 -28 -90 -18 -17 -47 -32
-80 -39 -75 -16 -2979 -16 -3054 0 -75 16 -108 52 -108 118 0 83 23 112 101
131 56 13 3009 12 3070 -1z m-5029 -436 c44 -26 53 -60 33 -128 -15 -55 -32
-71 -773 -813 -736 -735 -759 -759 -781 -820 -28 -75 -24 -98 29 -146 30 -27
49 -36 74 -36 89 0 83 -5 950 862 774 774 825 823 891 855 38 18 83 33 99 33
57 0 146 -72 146 -118 0 -5 -21 -41 -47 -78 -58 -86 -2011 -2042 -2111 -2116
-80 -59 -109 -59 -160 -1 -49 56 -57 99 -31 168 14 39 20 70 16 97 -5 39 -56
121 -155 251 -62 81 -82 140 -82 235 1 103 22 158 101 262 65 86 1302 1333
1370 1380 19 14 57 43 86 66 73 60 125 75 241 69 47 -2 84 -10 104 -22z m4839
-151 l29 -32 0 -245 c0 -340 -10 -378 -134 -501 -83 -82 -139 -112 -235 -125
-41 -6 -465 -9 -1057 -7 -1152 4 -1035 -9 -1172 123 -91 86 -122 135 -122 189
0 28 6 40 27 53 25 17 87 18 913 23 721 4 890 8 912 19 44 23 61 67 56 149 -3
62 -7 76 -31 100 l-27 27 -903 5 c-725 4 -907 8 -925 18 -46 26 -67 126 -39
182 7 14 28 33 47 43 33 16 112 17 1333 15 l1299 -3 29 -33z m-3847 -437 c32
-29 56 -83 56 -122 0 -16 -16 -53 -37 -83 -50 -75 -2020 -2048 -2097 -2100
-68 -46 -106 -51 -167 -20 -46 24 -75 74 -65 113 3 14 25 48 48 77 64 79 2032
2047 2108 2107 76 61 111 68 154 28z m460 -373 c50 -29 53 -57 17 -139 -67
-154 -65 -208 14 -303 25 -30 63 -84 84 -120 115 -193 117 -254 19 -430 -52
-93 -66 -108 -738 -781 l-685 -686 -105 -54 c-101 -52 -108 -54 -185 -54 -77
0 -83 2 -181 53 -55 29 -131 78 -168 108 -79 62 -113 74 -216 74 -78 0 -142
21 -169 54 -20 24 -16 69 14 134 23 51 141 172 1068 1099 657 657 1055 1048
1077 1058 42 18 110 13 154 -13z m3791 -485 c28 -15 73 -45 100 -65 52 -39
115 -124 115 -154 0 -43 12 -43 -1190 -48 -1070 -5 -1147 -6 -1177 -23 -50
-27 -66 -68 -67 -167 0 -100 17 -146 67 -175 31 -19 63 -20 1210 -25 l1179 -5
19 -24 c25 -31 25 -85 -1 -111 -20 -20 -33 -20 -1310 -20 l-1290 0 -21 21
c-20 20 -21 28 -17 258 3 153 9 246 17 265 17 42 95 157 123 182 54 48 136 99
178 110 35 10 271 12 1030 11 l985 -2 50 -28z m463 -1168 c77 -14 107 -38 118
-95 10 -56 -13 -113 -56 -139 -35 -20 -41 -20 -1580 -20 -1541 0 -1545 0
-1580 21 -58 34 -76 97 -46 169 17 39 41 54 105 65 77 13 2964 12 3039 -1z
m-212 -624 l26 -26 -4 -232 c-4 -262 -4 -263 -91 -386 -55 -78 -180 -165 -255
-178 -62 -10 -1903 -10 -1964 0 -32 6 -76 27 -135 66 -71 47 -94 69 -122 114
-18 31 -31 64 -27 72 14 39 34 40 926 45 972 6 902 0 934 81 23 56 21 173 -4
227 -37 81 23 76 -993 82 -875 5 -899 6 -913 24 -22 31 -18 83 11 111 l24 25
1281 0 1281 0 25 -25z"/>
<path d="M6855 5431 c-48 -20 -60 -48 -60 -138 0 -82 1 -85 31 -112 53 -47
175 -50 225 -5 27 24 42 90 34 147 -7 58 -26 89 -61 105 -28 14 -139 15 -169
3z"/>
<path d="M3582 4335 c-43 -20 -162 -134 -703 -675 -568 -568 -653 -657 -675
-705 -33 -77 -31 -98 17 -150 35 -38 47 -45 80 -45 56 0 143 45 190 99 22 25
58 60 80 78 22 17 53 48 69 68 16 20 46 50 67 66 21 17 52 48 70 70 17 22 50
55 72 72 22 18 54 50 70 71 17 22 49 52 70 67 21 16 50 46 65 67 14 21 46 54
71 72 25 18 56 50 70 71 14 20 42 48 63 63 20 14 52 46 72 70 19 25 52 58 73
75 21 16 51 46 67 66 16 20 47 51 69 68 22 18 56 52 75 77 20 25 52 56 71 70
24 17 48 50 71 98 45 91 42 124 -16 176 -49 44 -83 46 -158 11z"/>
<path d="M7553 2431 c-86 -22 -113 -69 -113 -193 0 -147 41 -188 188 -188 134
0 177 30 193 133 18 109 -13 206 -74 235 -34 16 -151 24 -194 13z"/>
</g>
</svg>
